<?xml version="1.0" standalone="no"?>
<!DOCTYPE svg PUBLIC "-//W3C//DTD SVG 20010904//EN"
 "http://www.w3.org/TR/2001/REC-SVG-20010904/DTD/svg10.dtd">
<svg version="1.0" xmlns="http://www.w3.org/2000/svg"
 width="403.000000pt" height="403.000000pt" viewBox="0 0 403.000000 403.000000"
 preserveAspectRatio="xMidYMid meet">
<metadata>
Created by potrace 1.11, written by Peter Selinger 2001-2013
</metadata>
<g transform="translate(0.000000,403.000000) scale(0.100000,-0.100000)"
fill="#000000" stroke="none">
<path d="M820 3244 l0 -266 -70 -104 c-113 -169 -180 -327 -222 -519 -26 -119
-35 -406 -18 -542 31 -248 132 -503 274 -688 l36 -48 0 -259 0 -259 58 3 57 3
5 187 5 187 60 -50 c204 -170 449 -284 715 -330 162 -29 419 -29 584 0 185 33
427 124 539 203 16 11 29 19 31 17 1 -2 40 -53 85 -112 l83 -108 52 3 51 3 3
224 2 224 49 61 c110 140 201 305 251 456 104 311 100 705 -10 1015 -55 154
-149 320 -248 440 l-42 49 -2 236 -3 235 -60 0 -60 0 -3 -173 -2 -172 -71 53
c-191 146 -448 251 -702 286 -130 18 -389 14 -520 -9 -193 -33 -385 -103 -539
-198 l-68 -41 -101 129 -101 130 -49 0 -49 0 0 -266z m1451 130 c252 -43 513
-168 687 -328 l62 -58 0 -963 0 -962 -54 -52 c-30 -28 -59 -51 -64 -51 -7 0
-1601 2048 -1691 2173 -17 23 -11 28 129 101 286 148 602 196 931 140z m-1271
-175 c19 -26 19 -26 -3 -46 -60 -52 -57 -53 -57 38 l0 84 21 -25 c11 -14 28
-37 39 -51z m955 -1234 c459 -594 835 -1083 835 -1087 0 -11 -157 -93 -244
-128 -196 -77 -448 -112 -666 -92 -343 33 -625 160 -862 390 l-78 75 0 902 0
902 76 73 c64 63 77 71 89 59 8 -8 390 -500 850 -1094z m1302 690 c49 -96 80
-180 111 -305 24 -97 26 -122 27 -315 0 -139 -5 -234 -14 -280 -32 -161 -107
-349 -195 -485 l-35 -55 0 810 0 810 35 -55 c20 -30 52 -86 71 -125z m-2439
-992 l-3 -368 -52 105 c-108 221 -149 420 -140 680 9 224 47 380 140 570 l52
105 3 -362 c1 -199 1 -527 0 -730z m2200 -840 l-3 -27 -18 28 c-18 27 -18 28
0 48 l18 20 3 -21 c2 -11 2 -33 0 -48z"/>
</g>
</svg>
